PathFileType	4	(X/Y/Z)	C:\Users\Basilio\Documents\Thesis Gigler\squatting_fais\c3dfiles\019\SLS_back_pre2\markers_experimental.trc
DataRate	CameraRate	NumFrames	NumMarkers	Units	OrigDataRate	OrigDataStartFrame	OrigNumFrames
200.000000	200.000000	4	59	mm	200.000000	741	1482
Frame#	Time	FHD			LBHD			RBHD			C7			T10			CLAV			LSHO			LUUPA			LMUPA			LDUPA			LLEP			LMEP			LRAD			LUL			LRFIN			RSHO			RUPA1			RMUPA			RDUPA			RLEP			RMEP			RRAD			RUL			RUFIN			LASI			RASI			USACR			LSACR			RSACR			LTHI1			LTHI2			LTHI3			LTHI4			LLFC			LTIB1			LTIB2			LTIB3			LTIB4			LLMAL			LMMAL			LHEE			LMT1			LMT2			LMT5			RTHI			RTHI2			RTHI3			RTHI4			RLFC			RTIB1			RTIB2			RTIB3			RTIB4			RLMAL			RMMAL			RHEE			RMT1			RMT2			RMT5			
		X1	Y1	Z1	X2	Y2	Z2	X3	Y3	Z3	X4	Y4	Z4	X5	Y5	Z5	X6	Y6	Z6	X7	Y7	Z7	X8	Y8	Z8	X9	Y9	Z9	X10	Y10	Z10	X11	Y11	Z11	X12	Y12	Z12	X13	Y13	Z13	X14	Y14	Z14	X15	Y15	Z15	X16	Y16	Z16	X17	Y17	Z17	X18	Y18	Z18	X19	Y19	Z19	X20	Y20	Z20	X21	Y21	Z21	X22	Y22	Z22	X23	Y23	Z23	X24	Y24	Z24	X25	Y25	Z25	X26	Y26	Z26	X27	Y27	Z27	X28	Y28	Z28	X29	Y29	Z29	X30	Y30	Z30	X31	Y31	Z31	X32	Y32	Z32	X33	Y33	Z33	X34	Y34	Z34	X35	Y35	Z35	X36	Y36	Z36	X37	Y37	Z37	X38	Y38	Z38	X39	Y39	Z39	X40	Y40	Z40	X41	Y41	Z41	X42	Y42	Z42	X43	Y43	Z43	X44	Y44	Z44	X45	Y45	Z45	X46	Y46	Z46	X47	Y47	Z47	X48	Y48	Z48	X49	Y49	Z49	X50	Y50	Z50	X51	Y51	Z51	X52	Y52	Z52	X53	Y53	Z53	X54	Y54	Z54	X55	Y55	Z55	X56	Y56	Z56	X57	Y57	Z57	X58	Y58	Z58	X59	Y59	Z59	

742	3.705	-98.4667663574219	1469.690795898438	-645.1871948242189	-221.696517944336	1426.087524414063	-789.9741210937502	-226.9403686523438	1421.4462890625	-649.8120727539064	-271.1166687011719	1283.111572265625	-710.9244384765626	-407.2441711425782	1038.41943359375	-713.9343872070314	-147.5531616210938	1200.191162109375	-712.4237060546876	-188.283920288086	1254.859375	-850.7841796875002	-73.21472930908205	1202.675415039063	-900.8692626953127	-49.85680389404298	1197.262817382813	-857.8162231445315	-7.898841857910158	1188.927612304688	-900.8393554687502	57.73815536499025	1142.5361328125	-925.5913696289065	46.28762435913087	1088.5380859375	-904.5040283203127	297.1053161621094	1145.569702148438	-844.3271484375002	302.0102844238282	1097.745727539063	-888.9783935546877	369.6751708984376	1161.251220703125	-848.330993652344	-173.2621612548828	1260.711059570313	-587.9766235351564	-68.20250701904298	1168.241821289063	-486.6162109375001	-38.35939407348634	1196.165161132813	-517.6774291992189	-1.925786972045899	1154.766357421875	-491.503631591797	74.23959350585939	1137.026611328125	-504.2671203613282	32.97387313842774	1197.776977539063	-497.1954650878907	311.5099182128907	1169.697387695313	-579.7387084960939	326.5812988281251	1117.014892578125	-538.4535522460939	398.3872070312501	1174.542724609375	-567.6766357421876	-369.4582824707032	797.3553466796877	-839.8323974609377	-353.6772155761719	793.5598754882815	-637.9102172851564	-474.2444458007814	922.0434570312502	-723.8699340820314	-495.1484375000001	896.8996582031252	-751.8538818359376	-491.2215881347657	893.784606933594	-693.8176879882814	-445.4278259277345	566.4824218750001	-933.3707275390627	-401.2556762695314	492.9583740234376	-941.1257324218752	-357.0055236816407	496.4399414062501	-923.325622558594	-424.2666931152345	436.0996704101564	-936.0694580078127	-431.8043823242189	355.2065124511719	-924.0234985351565	-534.1302490234376	263.8640747070313	-886.5357055664065	-587.1200561523439	314.2017517089844	-945.5458984375002	-585.7481079101564	280.5292968750001	-919.1550292968752	-663.4945678710939	274.5794677734376	-881.482849121094	-800.337097167969	333.3818054199219	-912.5958251953127	-788.2535400390627	323.4998168945313	-827.7715454101565	-844.412780761719	395.0842285156251	-866.6489868164065	-853.0241699218752	186.4392547607422	-827.4363403320315	-854.3990478515627	179.3135986328125	-866.6047973632815	-881.2060546875002	215.6679840087891	-920.7216796875002	-361.3997192382813	649.8363647460939	-562.2884521484376	-297.5657043457032	639.3433837890626	-576.2405395507814	-282.0276184082032	665.7197875976564	-594.5360107421876	-259.1271972656251	566.6817626953126	-575.8996582031251	-188.2874908447266	438.7804260253907	-633.2424316406251	-209.5137786865235	276.9390563964844	-716.3436889648439	-287.5963439941407	219.3595123291016	-662.3570556640626	-259.3057556152344	203.8316192626954	-700.2897949218751	-292.7298278808594	183.8870391845703	-743.8560791015626	-381.3393554687501	125.8148574829102	-698.7634277343751	-366.9569702148438	136.2813568115235	-776.2830200195315	-458.4064331054689	107.2276687622071	-753.5952758789064	-259.3078308105469	55.14510726928712	-784.4011230468752	-253.9507598876954	58.54489898681642	-738.8117065429689	-292.8402099609376	47.53704071044923	-683.6252441406251	
743	3.71	-98.10949707031253	1468.632202148438	-645.2509765625001	-221.0399780273438	1424.847290039063	-790.1504516601565	-226.6072235107422	1420.27490234375	-649.9652099609376	-270.8522949218751	1281.991333007813	-710.8878784179689	-407.3409423828126	1037.526733398438	-713.7611694335939	-147.4699096679688	1198.973388671875	-712.4965820312501	-188.2995910644532	1253.8681640625	-850.7575683593752	-73.21450805664064	1201.843505859375	-900.8648681640627	-49.53573989868165	1196.5947265625	-857.9938964843752	-7.800790786743166	1188.163696289063	-900.9138793945315	57.83010101318361	1141.713134765625	-925.6494140625002	46.44035720825196	1087.795532226563	-904.5924072265627	297.1778869628907	1144.835693359375	-844.579284667969	302.1401672363282	1096.836059570313	-889.2537231445315	369.7432861328126	1160.382446289063	-848.511413574219	-172.0219116210938	1261.393798828125	-586.8757934570314	-68.01517486572267	1167.387817382813	-486.4128417968751	-37.86759185791016	1195.109619140625	-517.6170043945314	-1.54556679725647	1153.99169921875	-491.3807983398439	74.52339172363283	1136.306274414063	-504.0989990234376	34.59844207763673	1196.676391601563	-496.4777832031251	311.7951660156251	1169.062377929688	-579.3726196289064	326.8318176269532	1116.408081054688	-538.0334472656251	397.0991210937501	1176.542724609375	-567.7520751953126	-369.8259277343751	796.4930419921877	-839.7205810546877	-353.8800048828126	792.6455078125002	-637.8536987304689	-474.5135498046876	920.9914550781252	-723.7562255859376	-495.3990478515626	896.1875610351565	-751.6007080078126	-491.2373352050782	892.5885009765627	-693.7020874023439	-446.0274963378907	565.6696777343751	-933.3210449218752	-401.5039978027345	492.2886047363282	-941.330505371094	-357.3959045410157	495.6239624023439	-923.267028808594	-424.747039794922	435.2557067871095	-935.9492187500002	-432.1535644531251	354.3941650390626	-923.983825683594	-534.4794311523439	262.9721374511719	-886.326843261719	-587.4783325195314	313.5543212890626	-945.5367431640627	-586.0579833984376	279.8500366210938	-919.106872558594	-663.9705810546876	274.0215454101563	-881.5789794921877	-800.6812744140627	333.1411743164063	-912.6389160156252	-788.7911376953127	323.3978576660157	-827.8523559570315	-844.7503662109377	395.010223388672	-866.8516235351565	-853.4261474609377	186.458480834961	-827.3825683593752	-855.1431884765627	179.0379791259766	-866.5139770507815	-881.8725585937502	215.6593017578126	-920.766540527344	-361.4512023925782	649.3223266601564	-562.2572631835939	-297.4614562988282	638.6946411132814	-576.2972412109376	-282.1648864746094	665.2814941406251	-594.6211547851564	-259.0879516601563	566.4219360351564	-575.4822387695314	-187.9344940185547	438.5526123046876	-633.5112304687501	-209.2943878173829	276.7875976562501	-716.5854492187501	-287.4250183105469	219.2398986816407	-662.4253540039064	-259.1302490234376	203.7183532714844	-700.4594726562501	-292.6239318847657	183.8111724853516	-743.9412841796876	-381.2992858886719	125.8091049194336	-698.7181396484376	-366.9598999023438	136.2391204833985	-776.3347778320315	-458.4044494628907	107.2298278808594	-753.5963745117189	-259.3630981445313	55.11815261840822	-784.3734130859377	-253.856430053711	58.61803054809572	-738.8005371093751	-292.8668212890626	47.52673339843751	-683.5842285156251	
744	3.715	-97.69742584228518	1467.28369140625	-645.2277832031251	-220.6470031738282	1423.70556640625	-789.958190917969	-226.2882995605469	1419.153442382813	-649.9946289062501	-270.8403625488282	1280.996704101563	-710.9130859375001	-407.4365844726564	1036.686279296875	-713.6025390625001	-147.2516784667969	1198.017578125	-712.5180664062501	-188.1737518310547	1252.978149414063	-850.649597167969	-73.11376190185548	1201.0048828125	-900.9147949218752	-49.175594329834	1195.659790039063	-857.9451904296877	-7.854797363281252	1187.3349609375	-900.9970703125002	57.93504333496095	1140.909545898438	-925.805114746094	46.48015975952149	1087.009521484375	-904.787292480469	297.1725158691407	1144.1650390625	-844.7946777343752	302.3449707031251	1095.9853515625	-889.5037841796877	369.7715148925782	1159.665405273438	-848.7405395507815	-172.2950592041016	1259.892333984375	-587.1629028320314	-67.76132965087892	1166.532592773438	-486.4136657714845	-37.6351547241211	1194.1875	-517.5049438476564	-1.091238141059876	1153.211791992188	-491.2316894531251	74.73104858398439	1135.424438476563	-504.186981201172	34.84345626831055	1195.848510742188	-496.048553466797	312.0215454101563	1168.483154296875	-579.0703735351564	326.9936828613282	1115.943969726563	-537.8054199218751	398.1419982910157	1175.826782226563	-567.2431030273439	-370.2320861816407	795.6357421875002	-839.5364379882815	-354.0976867675782	791.6892700195315	-637.8476562500001	-474.6164855957032	920.1700439453127	-723.6583862304689	-495.4090270996095	895.1594848632815	-751.5726928710939	-491.5936279296876	891.8679199218752	-693.3471679687501	-446.5972900390626	564.9895019531251	-933.2235107421877	-402.2290344238282	491.2974853515626	-941.0214843750002	-357.8255920410157	494.790252685547	-923.2225341796877	-425.1585083007814	434.3572082519532	-935.901794433594	-432.6489868164064	353.6050109863282	-923.9758911132815	-535.0057373046876	262.3312072753907	-886.2508544921877	-587.9566650390626	312.9975280761719	-945.5444946289065	-586.3918457031251	279.2066650390626	-919.0322875976565	-664.1989746093751	273.5057678222657	-881.0418090820315	-801.0332031250002	332.8791198730469	-912.7002563476565	-789.1765747070315	323.1812744140626	-827.8645629882815	-845.0422363281252	394.871063232422	-866.9697265625002	-853.8040161132815	186.5827331542969	-827.195251464844	-855.8306274414065	179.0138854980469	-866.4959716796877	-882.4437255859377	215.6342315673829	-920.7540283203127	-361.3543395996094	648.6237182617189	-562.3323974609376	-297.4602661132813	638.2236938476564	-576.3715209960939	-282.2415771484376	664.8547973632814	-594.7821044921876	-259.4843444824219	564.2451171875001	-581.2547607421876	-187.6535034179688	438.3585510253907	-633.7482299804689	-209.1014251708985	276.6549377441407	-716.7795410156251	-287.2997131347657	219.1995697021485	-662.5545654296876	-259.0287475585938	203.6742248535157	-700.5644531250001	-292.6950378417969	183.9939117431641	-743.9931030273439	-381.3325805664063	125.819938659668	-698.7033081054689	-366.8835754394532	136.1878509521485	-776.3371582031252	-458.3980712890626	107.2404022216797	-753.5950317382814	-259.2936096191407	55.13914108276369	-784.3668212890627	-253.8809204101563	58.60647583007814	-738.7763061523439	-292.8831787109376	47.54050827026368	-683.5966796875001	
745	3.72	-97.31601715087893	1466.091552734375	-645.2357788085939	-220.0718841552735	1422.662841796875	-789.9661865234377	-225.9576416015626	1418.085327148438	-650.0984497070314	-270.6017761230469	1279.972778320313	-710.8428955078126	-407.5259094238282	1035.782104492188	-713.4791870117189	-147.2198791503907	1196.917602539063	-712.5429687500001	-188.2305145263672	1252.020385742188	-850.7307739257815	-72.96237945556642	1200.181640625	-900.8574829101565	-49.21837234497072	1194.687133789063	-857.877136230469	-7.763717651367189	1186.468505859375	-900.9941406250002	58.00150299072267	1140.172241210938	-925.931335449219	46.61005401611329	1086.186401367188	-904.9105224609377	297.3257751464844	1143.424682617188	-844.995056152344	302.4952087402344	1095.2158203125	-889.8049926757815	369.9052124023438	1158.926513671875	-849.0407714843752	-172.4062194824219	1256.672119140625	-587.7591552734376	-67.51082611083986	1165.850463867188	-486.4096069335939	-37.53118133544923	1193.69873046875	-517.4268798828126	-0.9154167175292971	1152.487915039063	-491.0974731445314	75.01417541503908	1134.76513671875	-503.9355773925782	34.95934295654298	1195.186645507813	-495.8657226562501	312.4061279296876	1167.9833984375	-578.6641845703126	327.3829040527344	1115.372924804688	-537.2637329101564	398.6634521484376	1175.229858398438	-566.6742553710939	-370.5780029296876	794.8615722656252	-839.4685058593752	-354.3313598632813	790.880798339844	-637.8297119140626	-474.743133544922	919.4049072265627	-723.4789428710939	-495.9555969238282	894.4575195312502	-751.3451538085939	-491.5550231933595	891.2601318359377	-693.4382324218751	-446.9849853515626	564.1806640625001	-933.1400146484377	-402.6331787109376	490.511199951172	-940.9650878906252	-358.2117614746094	493.877655029297	-923.2568359375002	-425.5383605957032	433.4849853515626	-935.7999267578127	-433.0333862304689	352.8812561035157	-923.8779296875002	-535.3576660156251	261.9332275390626	-885.9873046875002	-588.3590698242189	312.4577636718751	-945.5490722656252	-586.7213745117189	278.4898681640626	-918.9625244140627	-664.7920532226564	273.1940612792969	-881.0213623046877	-801.3514404296877	332.6833801269532	-912.747985839844	-789.534118652344	322.9602966308594	-827.905944824219	-845.314880371094	394.7883300781251	-867.1065063476565	-854.1528930664065	186.6128845214844	-827.1701660156252	-856.5125122070315	178.9515991210938	-866.476013183594	-882.8498535156252	215.3636627197266	-920.7319335937502	-361.3390502929688	647.9652099609376	-562.3607788085939	-297.5023803710938	637.7946777343751	-576.5157470703126	-282.3971862792969	664.3476562500001	-594.9494628906251	-259.3458251953126	563.8643188476564	-581.5022583007814	-187.3374481201172	438.2290954589845	-634.0725708007814	-208.9624938964844	276.5260925292969	-716.9819946289064	-287.0830078125001	219.1913452148438	-662.6661987304689	-258.9268188476563	203.5290985107422	-700.7255859375001	-292.6420898437501	183.9380187988282	-744.1394653320314	-381.3369140625001	125.8142623901367	-698.6755981445314	-366.9488830566407	136.1909332275391	-776.3186645507815	-458.3868713378907	107.2782592773438	-753.5533447265626	-259.2587585449219	55.16431045532228	-784.356140136719	-253.8739776611329	58.62685012817384	-738.7682495117189	-292.8658752441407	47.5266342163086	-683.5929565429689	
